<?xml version="1.0" ?><svg id="ART" viewBox="0 0 150 150" xmlns="http://www.w3.org/2000/svg"><defs><style>.cls-1,.cls-3{fill:#a0683a;}.cls-1,.cls-3,.cls-4,.cls-5,.cls-6,.cls-7{stroke:#000;}.cls-1,.cls-3,.cls-4,.cls-5,.cls-6{stroke-miterlimit:10;}.cls-1,.cls-5,.cls-7{stroke-width:2px;}.cls-2{fill:#70411d;}.cls-3,.cls-4{stroke-width:4px;}.cls-4{fill:#c48a51;}.cls-5{fill:#fff;}.cls-6{fill:#e29149;stroke-width:3px;}.cls-7{fill:none;stroke-linecap:round;stroke-linejoin:round;}</style></defs><title/><path class="cls-1" d="M102.28,106.06c0,20-4.59,39.44-26.81,39.44s-26.81-19.4-26.81-39.44,12-2.13,26.81-2.13S102.28,86,102.28,106.06Z" data-name="&lt;Path&gt;" id="_Path_"/><circle class="cls-2" cx="75.48" cy="119.45" r="21.23"/><path class="cls-3" d="M109.06,30.65c7.39-13,19.34-21.28,26.38-21.1,3.63.09,2,7.32-.15,16.63-2,8.74-6.76,19.29-19,28.56C91,73.9,109.06,30.65,109.06,30.65Z"/><path class="cls-3" d="M40.94,30.65c-7.39-13-19.34-21.28-26.38-21.1-3.63.09-2,7.32.15,16.63,2,8.74,6.76,19.29,19,28.56C59,73.9,40.94,30.65,40.94,30.65Z"/><path class="cls-4" d="M116.91,95.31c-7.07,19.7-25.29,28.56-41.32,28.62h-.23c-16-.06-34.25-8.93-41.32-28.62-4.81-13.41-4.2-39-4.2-50.51,0-22.16,20.36-39.28,45.52-39.3h.23c25.15,0,45.52,17.14,45.52,39.3C121.11,56.32,121.72,81.9,116.91,95.31Z"/><path class="cls-5" d="M127.17,60.12c0,7-4.33,13.71-11.52,13.7s-13.79-1.72-13.79-8.71,6-13.52,12.65-14.65C121.41,49.3,127.17,53.13,127.17,60.12Z"/><path d="M113.52,69c-1.56,0-6.67-.37-6.67-5.13,0-3.8,3.62-6,7.18-6.71a5.12,5.12,0,0,1,6.15,5.17A6.67,6.67,0,0,1,113.52,69Z"/><path class="cls-6" d="M96.17,82.83c0,3.25-11.3,13.45-20.7,13.45s-20.7-10.2-20.7-13.45c0-7.43,11.3-27.08,20.7-27.08S96.17,75.4,96.17,82.83Z" data-name="&lt;Path&gt;" id="_Path_2"/><path class="cls-5" d="M23.78,60.12c0,7,4.33,13.6,11.52,13.6s13.79-1.62,13.79-8.61-6-13.52-12.65-14.65C29.54,49.3,23.78,53.13,23.78,60.12Z"/><path class="cls-2" d="M94.67,82.83c-.06,2-10,12-19.19,12s-19.14-9.93-19.2-12a15.39,15.39,0,0,1,1-4.62c6.52,2.55,14.15,8,18.24,13.49,4.09-5.49,11.71-10.93,18.23-13.49A15.39,15.39,0,0,1,94.67,82.83Z"/><path d="M37.43,69c1.56,0,6.67-.37,6.67-5.13,0-3.8-3.62-6-7.18-6.71a5.12,5.12,0,0,0-6.15,5.17A6.67,6.67,0,0,0,37.43,69Z"/><path class="cls-6" d="M106.85,110.55c0,11.18-14.82,37.61-31.38,21.06-16.55,16.55-31.38-9.88-31.38-21.06q0-.7,0-1.39C44.84,92.72,57.51,78,75.47,96c17.56-17.56,30.68-4.2,31.35,13.15Q106.85,109.86,106.85,110.55Z"/><polyline class="cls-7" points="75.47 96.01 75.48 129.82 75.48 97.64"/></svg>